<svg width="10" height="8" viewBox="0 0 10 8" fill="none" xmlns="http://www.w3.org/2000/svg">
<path d="M7.45854 2.01612C7.58089 1.89408 7.73143 1.80407 7.89685 1.75405C8.06226 1.70403 8.23746 1.69554 8.40693 1.72934C8.57641 1.76314 8.73495 1.83818 8.86852 1.94783C9.00209 2.05748 9.10659 2.19835 9.17276 2.358C9.23894 2.51764 9.26475 2.69113 9.24792 2.86312C9.2311 3.03511 9.17214 3.20031 9.07628 3.3441C8.98042 3.48788 8.8506 3.60583 8.69831 3.68751C8.54601 3.76919 8.37594 3.81208 8.20312 3.81239H0.84137M4.03427 0.69521C4.13199 0.596905 4.25249 0.524268 4.38505 0.483756C4.51762 0.443244 4.65814 0.436113 4.79412 0.462996C4.9301 0.489879 5.05733 0.549943 5.16451 0.63785C5.27168 0.725756 5.35548 0.838781 5.40845 0.966877C5.46141 1.09497 5.48191 1.23417 5.46811 1.3721C5.45432 1.51002 5.40666 1.64241 5.32937 1.75747C5.25208 1.87254 5.14756 1.96673 5.0251 2.03167C4.90264 2.09661 4.76603 2.13028 4.62741 2.1297H0.84137L4.03427 0.69521ZM5.29628 6.92957C5.39401 7.02787 5.51451 7.10051 5.64707 7.14102C5.77963 7.18153 5.92015 7.18866 6.05613 7.16178C6.19212 7.1349 6.31935 7.07483 6.42652 6.98693C6.5337 6.89902 6.61749 6.78599 6.67046 6.6579C6.72343 6.5298 6.74392 6.3906 6.73013 6.25268C6.71633 6.11475 6.66867 5.98237 6.59139 5.8673C6.5141 5.75223 6.40958 5.65804 6.28712 5.59311C6.16465 5.52817 6.02804 5.49449 5.88943 5.49507H0.84137L5.29628 6.92957Z" stroke="white" stroke-width="0.7" stroke-linecap="round" stroke-linejoin="round"/>
</svg>
